<?xml version="1.0" encoding="utf-8"?>
<!-- Generator: Adobe Illustrator 15.0.0, SVG Export Plug-In . SVG Version: 6.00 Build 0)  -->
<!DOCTYPE svg PUBLIC "-//W3C//DTD SVG 1.1//EN" "http://www.w3.org/Graphics/SVG/1.1/DTD/svg11.dtd">
<svg version="1.1" id="Layer_1" xmlns="http://www.w3.org/2000/svg" xmlns:xlink="http://www.w3.org/1999/xlink" x="0px" y="0px"
	 width="640px" height="480px" viewBox="0 0 640 480" enable-background="new 0 0 640 480" xml:space="preserve">
<path fill="#3B2F3F" d="M315.782,60.378h-136.73v136.729v136.73h136.73h136.732v-136.73V60.378H315.782z M363.917,244.831h-95.444
	v-95.445h95.444V244.831z"/>
<rect x="-200.106" y="89.081" fill="none" width="96.104" height="103.627"/>
<text transform="matrix(1 0 0 1 -200.1055 105.5801)"><tspan x="0" y="0" font-family="'Futura-Medium'" font-size="20" letter-spacing="1">R= 59</tspan><tspan x="0" y="24" font-family="'Futura-Medium'" font-size="20" letter-spacing="1">G= 47</tspan><tspan x="0" y="48" font-family="'Futura-Medium'" font-size="20" letter-spacing="1">B= 63</tspan></text>
<rect x="-200.106" y="233.743" fill="none" width="96.104" height="103.627"/>
<text transform="matrix(1 0 0 1 -200.1055 250.2422)"><tspan x="0" y="0" font-family="'Futura-Medium'" font-size="20" letter-spacing="1">R= 62</tspan><tspan x="0" y="24" font-family="'Futura-Medium'" font-size="20" letter-spacing="1">G= 189</tspan><tspan x="0" y="48" font-family="'Futura-Medium'" font-size="20" letter-spacing="1">B= 169</tspan></text>
<g>
	<path fill="#3B2F3F" d="M288.731,182.704c0-2.937,0.685-5.279,2.053-7.03c1.226-1.584,2.71-2.375,4.453-2.375
		c1.742,0,3.227,0.792,4.452,2.375c1.369,1.751,2.053,4.134,2.053,7.15c0,3.008-0.684,5.387-2.053,7.138
		c-1.226,1.584-2.706,2.376-4.44,2.376s-3.223-0.792-4.464-2.376C289.416,188.211,288.731,185.792,288.731,182.704z
		 M291.478,182.716c0,2.045,0.353,3.745,1.061,5.097c0.707,1.33,1.608,1.994,2.705,1.994c1.088,0,1.99-0.664,2.706-1.994
		c0.715-1.321,1.072-2.988,1.072-5.001c0-2.013-0.357-3.684-1.072-5.013c-0.715-1.321-1.617-1.982-2.706-1.982
		c-1.081,0-1.979,0.661-2.693,1.982C291.834,179.111,291.478,180.751,291.478,182.716z"/>
	<path fill="#3B2F3F" d="M303.819,182.704c0-2.937,0.685-5.279,2.053-7.03c1.226-1.584,2.71-2.375,4.453-2.375
		c1.742,0,3.227,0.792,4.452,2.375c1.369,1.751,2.053,4.134,2.053,7.15c0,3.008-0.685,5.387-2.053,7.138
		c-1.226,1.584-2.706,2.376-4.44,2.376s-3.223-0.792-4.464-2.376C304.504,188.211,303.819,185.792,303.819,182.704z
		 M306.565,182.716c0,2.045,0.354,3.745,1.061,5.097c0.707,1.33,1.608,1.994,2.705,1.994c1.089,0,1.991-0.664,2.706-1.994
		c0.715-1.321,1.073-2.988,1.073-5.001c0-2.013-0.357-3.684-1.073-5.013c-0.715-1.321-1.617-1.982-2.706-1.982
		c-1.081,0-1.978,0.661-2.693,1.982C306.922,179.111,306.565,180.751,306.565,182.716z"/>
	<path fill="#3B2F3F" d="M322.607,176.223h-3.188l1.53-2.615h4.44v18.43h-2.782V176.223z"/>
	<path fill="#3B2F3F" d="M330.642,182.704c0-2.937,0.685-5.279,2.054-7.03c1.224-1.584,2.709-2.375,4.451-2.375
		c1.743,0,3.228,0.792,4.453,2.375c1.368,1.751,2.053,4.134,2.053,7.15c0,3.008-0.685,5.387-2.053,7.138
		c-1.226,1.584-2.706,2.376-4.44,2.376c-1.735,0-3.223-0.792-4.464-2.376C331.326,188.211,330.642,185.792,330.642,182.704z
		 M333.387,182.716c0,2.045,0.354,3.745,1.061,5.097c0.708,1.33,1.609,1.994,2.706,1.994c1.088,0,1.989-0.664,2.705-1.994
		c0.715-1.321,1.072-2.988,1.072-5.001c0-2.013-0.357-3.684-1.072-5.013c-0.716-1.321-1.617-1.982-2.705-1.982
		c-1.081,0-1.979,0.661-2.694,1.982C333.745,179.111,333.387,180.751,333.387,182.716z"/>
	<path fill="#3B2F3F" d="M296.103,205.558h-3.187l1.527-2.614h4.44v18.43h-2.781V205.558z"/>
	<path fill="#3B2F3F" d="M304.136,212.04c0-2.937,0.685-5.28,2.053-7.03c1.226-1.584,2.71-2.376,4.453-2.376
		c1.742,0,3.227,0.792,4.452,2.376c1.369,1.75,2.053,4.134,2.053,7.15c0,3.008-0.685,5.387-2.053,7.138
		c-1.226,1.584-2.706,2.375-4.44,2.375s-3.223-0.792-4.464-2.375C304.82,217.546,304.136,215.127,304.136,212.04z M306.882,212.051
		c0,2.045,0.353,3.745,1.061,5.097c0.707,1.33,1.608,1.994,2.705,1.994c1.088,0,1.99-0.665,2.706-1.994
		c0.715-1.32,1.072-2.988,1.072-5.001s-0.357-3.684-1.072-5.013c-0.715-1.321-1.617-1.981-2.706-1.981
		c-1.081,0-1.979,0.66-2.693,1.981C307.239,208.447,306.882,210.086,306.882,212.051z"/>
	<path fill="#3B2F3F" d="M322.925,205.558h-3.188l1.527-2.614h4.44v18.43h-2.78V205.558z"/>
	<path fill="#3B2F3F" d="M334.443,205.558h-3.187l1.528-2.614h4.439v18.43h-2.781V205.558z"/>
</g>
<polyline fill="none" points="452.697,262.295 250.741,262.263 250.741,151.324 "/>
<polyline fill="none" stroke="#000000" stroke-width="0.5" stroke-miterlimit="10" points="179.057,132.171 380.827,132.171 
	380.827,243.109 "/>
<path fill="#3EBDA9" d="M452.648,246.116v-2.29l-54.214-0.009V114.502l-81.666,0.005V60.291h-1.145v54.216l-136.853,0.008v17.894
	l201.77-0.013v111.418l-15.89-0.003v-95.46H179.057v2.29h53.726v130.539l82.841-0.003v52.66h1.145v-52.66l135.851-0.007v-17.897
	l-201.943,0.014V150.642h16.24v95.444L452.648,246.116z M362.361,243.811l-93.155-0.015v-93.154h93.155V243.811z"/>
<rect x="-340.001" y="86.708" fill="#3B2F3F" width="114" height="106"/>
<rect x="-340.001" y="232.556" fill="#3EBDA9" width="114" height="106"/>
<g>
	<path fill="#3B2F3F" d="M305.426,365.497h-6.094v19.01h-1.552v-19.01h-6.066v-1.37h13.712V365.497z"/>
	<path fill="#3B2F3F" d="M323.15,384.507h-1.553v-9.589h-10.608v9.589h-1.552v-20.38h1.552v9.421h10.608v-9.421h1.553V384.507z"/>
	<path fill="#3B2F3F" d="M341.824,384.507h-12.37v-20.38h12.37v1.37h-10.819v8.051h9.212v1.37h-9.212v8.219h10.819V384.507z"/>
	<path fill="#3B2F3F" d="M204.994,413.376c-0.426,2.579-1.503,4.567-3.23,5.963c-1.633,1.349-3.656,2.023-6.07,2.023
		c-2.698,0-4.97-0.923-6.815-2.769c-1.136-1.136-1.87-2.592-2.201-4.366c-0.19-1.041-0.284-2.946-0.284-5.715
		c0-2.77,0.094-4.674,0.284-5.716c0.331-1.774,1.065-3.229,2.201-4.365c1.846-1.847,4.118-2.77,6.815-2.77
		c2.437,0,4.491,0.687,6.159,2.06c1.668,1.372,2.716,3.349,3.142,5.928h-5.005c-0.592-2.39-2.012-3.585-4.26-3.585
		c-1.491,0-2.639,0.556-3.443,1.668c-0.639,0.899-0.958,3.159-0.958,6.78c0,1.964,0.023,3.194,0.071,3.691
		c0.165,1.586,0.556,2.733,1.171,3.443c0.781,0.876,1.833,1.313,3.159,1.313c2.248,0,3.668-1.195,4.26-3.585H204.994z"/>
	<path fill="#3B2F3F" d="M227.074,408.513c0,2.745-0.107,4.649-0.32,5.715c-0.308,1.752-1.042,3.207-2.201,4.366
		c-1.846,1.846-4.118,2.769-6.815,2.769c-2.722,0-5.005-0.923-6.851-2.769c-1.136-1.136-1.87-2.592-2.201-4.366
		c-0.19-1.041-0.284-2.946-0.284-5.715c0-2.77,0.094-4.674,0.284-5.716c0.331-1.774,1.065-3.229,2.201-4.365
		c1.846-1.847,4.129-2.77,6.851-2.77c2.698,0,4.97,0.923,6.815,2.77c1.159,1.159,1.893,2.614,2.201,4.365
		C226.967,403.862,227.074,405.768,227.074,408.513z M222.139,408.513c0-1.94-0.023-3.171-0.071-3.692
		c-0.142-1.562-0.532-2.697-1.171-3.407c-0.805-0.899-1.858-1.349-3.159-1.349c-1.326,0-2.391,0.449-3.195,1.349
		c-0.616,0.71-0.994,1.846-1.136,3.407c-0.048,0.427-0.071,1.657-0.071,3.692s0.023,3.266,0.071,3.691
		c0.142,1.562,0.52,2.698,1.136,3.408c0.804,0.899,1.869,1.349,3.195,1.349c1.467,0,2.615-0.568,3.443-1.704
		C221.82,414.382,222.139,412.133,222.139,408.513z"/>
	<path fill="#3B2F3F" d="M251.46,421.149h-4.402l-10.01-15.513v15.513h-4.934v-25.274h4.402l10.01,15.478v-15.478h4.935V421.149z"/>
	<path fill="#3B2F3F" d="M273.717,413.695c0,2.391-0.882,4.266-2.645,5.626c-1.763,1.361-4.006,2.041-6.727,2.041
		c-3.953,0-7.029-1.112-9.229-3.337l3.195-3.194c1.42,1.42,3.455,2.13,6.105,2.13c2.982,0,4.473-1.041,4.473-3.124
		c0-0.946-0.249-1.65-0.746-2.112c-0.497-0.461-1.254-0.763-2.271-0.905l-3.053-0.426c-4.473-0.615-6.709-2.97-6.709-7.063
		c0-2.295,0.792-4.147,2.378-5.556c1.585-1.407,3.728-2.112,6.425-2.112c3.408,0,6.129,0.982,8.164,2.946l-3.124,3.089
		c-1.207-1.159-2.935-1.739-5.183-1.739c-1.255,0-2.219,0.302-2.893,0.904c-0.674,0.604-1.012,1.367-1.012,2.29
		c0,0.733,0.266,1.349,0.799,1.846c0.532,0.497,1.295,0.816,2.29,0.959l2.982,0.426c2.153,0.308,3.763,0.958,4.827,1.952
		C273.065,409.565,273.717,411.353,273.717,413.695z"/>
	<path fill="#3B2F3F" d="M294.979,421.149h-16.648v-25.274h16.648v4.402h-11.714v5.928h9.975v4.401h-9.975v6.142h11.714V421.149z"/>
	<path fill="#3B2F3F" d="M318.939,421.149h-5.715l-4.934-10.081h-3.55v10.081h-4.934v-25.274h9.904c2.508,0,4.52,0.758,6.035,2.272
		c1.443,1.443,2.165,3.266,2.165,5.467c0,1.68-0.461,3.123-1.384,4.33c-0.829,1.065-1.905,1.834-3.23,2.308L318.939,421.149z
		 M312.976,403.596c0-0.988-0.332-1.788-0.994-2.4s-1.526-0.918-2.591-0.918h-4.65v6.638h4.65c1.064,0,1.928-0.306,2.591-0.918
		C312.645,405.386,312.976,404.585,312.976,403.596z"/>
	<path fill="#3B2F3F" d="M340.593,395.875l-8.378,25.274h-3.691l-8.342-25.274h5.111l5.076,16.471l5.076-16.471H340.593z"/>
	<path fill="#3B2F3F" d="M363.169,421.149h-5.147l-1.49-4.473h-8.981l-1.526,4.473h-5.146l9.193-25.274h3.869L363.169,421.149z
		 M355.218,412.523l-3.089-9.193l-3.194,9.193H355.218z"/>
	<path fill="#3B2F3F" d="M382.55,400.277h-6.603v20.872h-4.935v-20.872h-6.603v-4.402h18.14V400.277z"/>
	<path fill="#3B2F3F" d="M404.38,408.513c0,2.745-0.106,4.649-0.319,5.715c-0.308,1.752-1.041,3.207-2.201,4.366
		c-1.846,1.846-4.117,2.769-6.815,2.769c-2.722,0-5.005-0.923-6.851-2.769c-1.136-1.136-1.87-2.592-2.201-4.366
		c-0.189-1.041-0.283-2.946-0.283-5.715c0-2.77,0.094-4.674,0.283-5.716c0.331-1.774,1.065-3.229,2.201-4.365
		c1.846-1.847,4.129-2.77,6.851-2.77c2.698,0,4.97,0.923,6.815,2.77c1.16,1.159,1.894,2.614,2.201,4.365
		C404.273,403.862,404.38,405.768,404.38,408.513z M399.446,408.513c0-1.94-0.024-3.171-0.071-3.692
		c-0.142-1.562-0.532-2.697-1.171-3.407c-0.806-0.899-1.858-1.349-3.16-1.349c-1.325,0-2.39,0.449-3.194,1.349
		c-0.615,0.71-0.994,1.846-1.136,3.407c-0.048,0.427-0.071,1.657-0.071,3.692s0.023,3.266,0.071,3.691
		c0.142,1.562,0.521,2.698,1.136,3.408c0.805,0.899,1.869,1.349,3.194,1.349c1.468,0,2.615-0.568,3.443-1.704
		C399.127,414.382,399.446,412.133,399.446,408.513z"/>
	<path fill="#3B2F3F" d="M428.554,421.149h-5.715l-4.935-10.081h-3.549v10.081h-4.935v-25.274h9.903
		c2.509,0,4.521,0.758,6.035,2.272c1.443,1.443,2.165,3.266,2.165,5.467c0,1.68-0.461,3.123-1.385,4.33
		c-0.828,1.065-1.904,1.834-3.229,2.308L428.554,421.149z M422.591,403.596c0-0.988-0.332-1.788-0.994-2.4
		c-0.663-0.612-1.526-0.918-2.592-0.918h-4.649v6.638h4.649c1.065,0,1.929-0.306,2.592-0.918
		C422.259,405.386,422.591,404.585,422.591,403.596z"/>
	<path fill="#3B2F3F" d="M449.888,395.875l-7.597,14.909v10.365h-4.898v-10.365l-7.597-14.909h5.36l4.721,10.188l4.65-10.188
		H449.888z"/>
</g>
</svg>
