<?xml version="1.0" encoding="utf-8"?>
<!-- Generator: Adobe Illustrator 15.0.0, SVG Export Plug-In . SVG Version: 6.00 Build 0)  -->
<!DOCTYPE svg PUBLIC "-//W3C//DTD SVG 1.1//EN" "http://www.w3.org/Graphics/SVG/1.1/DTD/svg11.dtd">
<svg version="1.1" id="Layer_1" xmlns="http://www.w3.org/2000/svg" xmlns:xlink="http://www.w3.org/1999/xlink" x="0px" y="0px"
	 width="225px" height="225px" viewBox="0 0 225 225" enable-background="new 0 0 225 225" xml:space="preserve">
<path fill="#3B2F3F" d="M112.654-0.149H0v112.653v112.654h112.654H225.31V112.504V-0.149H112.654z M152.313,151.824H73.676V73.186
	h78.638V151.824z"/>
<g>
	<path fill="#3B2F3F" d="M90.367,100.637c0-2.419,0.564-4.35,1.691-5.792c1.01-1.305,2.233-1.958,3.669-1.958
		c1.436,0,2.658,0.652,3.668,1.958c1.127,1.442,1.691,3.406,1.691,5.891c0,2.478-0.564,4.438-1.691,5.88
		c-1.01,1.305-2.229,1.958-3.659,1.958c-1.43,0-2.655-0.652-3.679-1.958C90.931,105.174,90.367,103.181,90.367,100.637z
		 M92.629,100.646c0,1.685,0.291,3.085,0.874,4.2c0.582,1.095,1.325,1.643,2.229,1.643c0.897,0,1.64-0.547,2.229-1.643
		c0.589-1.088,0.883-2.461,0.883-4.121c0-1.658-0.294-3.035-0.883-4.13c-0.589-1.089-1.333-1.633-2.229-1.633
		c-0.89,0-1.63,0.544-2.219,1.633C92.924,97.677,92.629,99.028,92.629,100.646z"/>
	<path fill="#3B2F3F" d="M102.798,100.637c0-2.419,0.564-4.35,1.691-5.792c1.01-1.305,2.233-1.958,3.669-1.958
		c1.436,0,2.658,0.652,3.668,1.958c1.128,1.442,1.691,3.406,1.691,5.891c0,2.478-0.563,4.438-1.691,5.88
		c-1.01,1.305-2.229,1.958-3.659,1.958c-1.43,0-2.656-0.652-3.679-1.958C103.362,105.174,102.798,103.181,102.798,100.637z
		 M105.061,100.646c0,1.685,0.291,3.085,0.874,4.2c0.582,1.095,1.325,1.643,2.229,1.643c0.897,0,1.64-0.547,2.229-1.643
		c0.589-1.088,0.883-2.461,0.883-4.121c0-1.658-0.294-3.035-0.883-4.13c-0.589-1.089-1.333-1.633-2.229-1.633
		c-0.89,0-1.63,0.544-2.219,1.633C105.355,97.677,105.061,99.028,105.061,100.646z"/>
	<path fill="#3B2F3F" d="M118.277,95.297h-2.626l1.261-2.154h3.658v15.185h-2.293V95.297z"/>
	<path fill="#3B2F3F" d="M124.897,100.637c0-2.419,0.564-4.35,1.692-5.792c1.009-1.305,2.232-1.958,3.667-1.958
		c1.437,0,2.659,0.652,3.669,1.958c1.128,1.442,1.691,3.406,1.691,5.891c0,2.478-0.563,4.438-1.691,5.88
		c-1.01,1.305-2.229,1.958-3.659,1.958c-1.429,0-2.654-0.652-3.677-1.958C125.462,105.174,124.897,103.181,124.897,100.637z
		 M127.159,100.646c0,1.685,0.291,3.085,0.873,4.2c0.584,1.095,1.327,1.643,2.23,1.643c0.896,0,1.639-0.547,2.229-1.643
		c0.589-1.088,0.884-2.461,0.884-4.121c0-1.658-0.295-3.035-0.884-4.13c-0.59-1.089-1.332-1.633-2.229-1.633
		c-0.891,0-1.631,0.544-2.22,1.633C127.454,97.677,127.159,99.028,127.159,100.646z"/>
	<path fill="#3B2F3F" d="M96.441,119.467h-2.626l1.259-2.154h3.658v15.186h-2.291V119.467z"/>
	<path fill="#3B2F3F" d="M103.059,124.807c0-2.419,0.564-4.35,1.691-5.792c1.01-1.306,2.233-1.958,3.669-1.958
		c1.436,0,2.658,0.652,3.668,1.958c1.127,1.442,1.69,3.406,1.69,5.891c0,2.479-0.563,4.438-1.69,5.881
		c-1.01,1.305-2.229,1.957-3.659,1.957c-1.43,0-2.656-0.652-3.679-1.957C103.623,129.343,103.059,127.351,103.059,124.807z
		 M105.321,124.815c0,1.687,0.291,3.086,0.874,4.2c0.582,1.097,1.325,1.644,2.229,1.644c0.897,0,1.64-0.547,2.229-1.644
		c0.589-1.087,0.883-2.462,0.883-4.121c0-1.658-0.294-3.034-0.883-4.13c-0.59-1.088-1.333-1.633-2.229-1.633
		c-0.89,0-1.63,0.545-2.219,1.633C105.616,121.847,105.321,123.196,105.321,124.815z"/>
	<path fill="#3B2F3F" d="M118.54,119.467h-2.627l1.258-2.154h3.659v15.186h-2.29V119.467z"/>
	<path fill="#3B2F3F" d="M128.029,119.467h-2.625l1.26-2.154h3.657v15.186h-2.292V119.467z"/>
</g>
<polyline fill="none" points="225.461,166.213 59.066,166.187 59.066,74.783 "/>
<polyline fill="none" stroke="#000000" stroke-width="0.5" stroke-miterlimit="10" points="0.005,59.002 166.246,59.002 
	166.246,150.405 "/>
<path fill="#3EBDA9" d="M225.42,152.884v-1.888l-44.667-0.008V44.444l-67.285,0.004V-0.221h-0.944v44.669L-0.23,44.455v14.743
	l166.24-0.01v91.8l-13.091-0.003V72.333H0.005v1.887h44.265v107.553l68.253-0.002v43.387h0.944v-43.387l111.929-0.006V167.02
	L59.013,167.03V74.22h13.38v78.638L225.42,152.884z M151.032,150.983l-76.752-0.012V74.22h76.752V150.983z"/>
</svg>
