<?xml version="1.0" encoding="utf-8"?>
<!-- Generator: Adobe Illustrator 15.0.0, SVG Export Plug-In . SVG Version: 6.00 Build 0)  -->
<!DOCTYPE svg PUBLIC "-//W3C//DTD SVG 1.1//EN" "http://www.w3.org/Graphics/SVG/1.1/DTD/svg11.dtd">
<svg version="1.1" id="Layer_1" xmlns="http://www.w3.org/2000/svg" xmlns:xlink="http://www.w3.org/1999/xlink" x="0px" y="0px"
	 width="640px" height="480px" viewBox="0 0 640 480" enable-background="new 0 0 640 480" xml:space="preserve">
<g>
	<path d="M293.318,184.771c0-2.895,0.675-5.206,2.024-6.932c1.208-1.562,2.672-2.342,4.39-2.342c1.718,0,3.181,0.781,4.39,2.342
		c1.35,1.726,2.024,4.076,2.024,7.05c0,2.966-0.675,5.312-2.024,7.037c-1.208,1.562-2.667,2.342-4.378,2.342
		s-3.178-0.78-4.402-2.342C293.993,190.2,293.318,187.814,293.318,184.771z M296.026,184.782c0,2.017,0.348,3.692,1.045,5.025
		c0.697,1.311,1.586,1.966,2.667,1.966c1.073,0,1.963-0.655,2.668-1.966c0.705-1.302,1.057-2.946,1.057-4.931
		c0-1.984-0.352-3.632-1.057-4.943c-0.705-1.302-1.595-1.954-2.668-1.954c-1.065,0-1.95,0.651-2.655,1.954
		C296.378,181.228,296.026,182.845,296.026,184.782z"/>
	<path d="M308.194,184.771c0-2.895,0.675-5.206,2.024-6.932c1.208-1.562,2.672-2.342,4.391-2.342c1.717,0,3.181,0.781,4.39,2.342
		c1.349,1.726,2.024,4.076,2.024,7.05c0,2.966-0.675,5.312-2.024,7.037c-1.208,1.562-2.667,2.342-4.378,2.342
		c-1.71,0-3.177-0.78-4.402-2.342C308.869,190.2,308.194,187.814,308.194,184.771z M310.901,184.782
		c0,2.017,0.349,3.692,1.046,5.025c0.697,1.311,1.586,1.966,2.667,1.966c1.073,0,1.962-0.655,2.667-1.966
		c0.705-1.302,1.057-2.946,1.057-4.931c0-1.984-0.352-3.632-1.057-4.943c-0.705-1.302-1.594-1.954-2.667-1.954
		c-1.065,0-1.95,0.651-2.655,1.954C311.254,181.228,310.901,182.845,310.901,184.782z"/>
	<path d="M326.719,178.38h-3.144l1.509-2.578h4.378v18.171h-2.743V178.38z"/>
	<path d="M334.64,184.771c0-2.895,0.675-5.206,2.023-6.932c1.209-1.562,2.673-2.342,4.391-2.342s3.182,0.781,4.391,2.342
		c1.349,1.726,2.023,4.076,2.023,7.05c0,2.966-0.675,5.312-2.023,7.037c-1.209,1.562-2.669,2.342-4.38,2.342
		s-3.177-0.78-4.401-2.342C335.314,190.2,334.64,187.814,334.64,184.771z M337.347,184.782c0,2.017,0.349,3.692,1.046,5.025
		c0.696,1.311,1.585,1.966,2.668,1.966c1.071,0,1.96-0.655,2.666-1.966c0.705-1.302,1.059-2.946,1.059-4.931
		c0-1.984-0.354-3.632-1.059-4.943c-0.706-1.302-1.595-1.954-2.666-1.954c-1.067,0-1.951,0.651-2.657,1.954
		C337.7,181.228,337.347,182.845,337.347,184.782z"/>
	<path d="M300.586,207.303h-3.142l1.506-2.578h4.378v18.171h-2.742V207.303z"/>
	<path d="M308.506,213.693c0-2.895,0.675-5.206,2.024-6.931c1.208-1.562,2.672-2.342,4.391-2.342c1.718,0,3.181,0.78,4.39,2.342
		c1.349,1.726,2.023,4.076,2.023,7.049c0,2.966-0.674,5.312-2.023,7.037c-1.208,1.562-2.668,2.343-4.378,2.343
		s-3.177-0.781-4.402-2.343C309.181,219.123,308.506,216.738,308.506,213.693z M311.213,213.705c0,2.017,0.349,3.692,1.046,5.025
		c0.697,1.311,1.586,1.966,2.667,1.966c1.073,0,1.962-0.655,2.667-1.966c0.705-1.302,1.057-2.946,1.057-4.931
		c0-1.984-0.352-3.632-1.057-4.942c-0.705-1.303-1.594-1.954-2.667-1.954c-1.065,0-1.95,0.651-2.655,1.954
		C311.566,210.151,311.213,211.768,311.213,213.705z"/>
	<path d="M327.032,207.303h-3.144l1.506-2.578h4.378v18.171h-2.74V207.303z"/>
	<path d="M338.388,207.303h-3.142l1.508-2.578h4.377v18.171h-2.743V207.303z"/>
</g>
<polyline fill="none" points="454.979,263.243 255.861,263.211 255.861,153.832 "/>
<g>
	<polygon points="255.798,153.159 255.798,264.221 454.799,264.208 454.799,247.292 271.81,247.262 271.81,153.159 	"/>
	<polygon points="320.961,117.532 401.48,117.527 401.48,245.025 454.799,245.034 454.799,198.972 454.799,64.164 320.961,64.164 	
		"/>
	<polygon points="319.833,117.532 319.833,64.164 185.18,64.164 185.18,117.54 	"/>
	<polygon points="185.186,134.665 185.186,135.182 185.18,135.182 185.18,198.972 185.18,333.78 319.833,333.78 319.833,281.86 
		238.438,281.863 238.156,281.863 238.156,153.159 185.186,153.159 185.186,150.9 368.171,150.9 368.171,245.02 383.838,245.021 
		383.838,245.034 384.402,245.034 384.402,134.665 	"/>
	<polygon points="320.961,281.86 320.961,333.78 454.799,333.78 454.799,281.854 	"/>
</g>
<g>
	<path d="M308.277,362.616h-6.009v18.743h-1.53v-18.743h-5.981v-1.351h13.52V362.616z"/>
	<path d="M325.752,381.359h-1.529v-9.454h-10.46v9.454h-1.529v-20.094h1.529v9.289h10.46v-9.289h1.529V381.359z"/>
	<path d="M344.165,381.359h-12.197v-20.094h12.197v1.351h-10.667v7.938h9.082v1.351h-9.082v8.104h10.667V381.359z"/>
	<path d="M209.257,409.821c-0.42,2.544-1.482,4.504-3.185,5.88c-1.61,1.33-3.605,1.995-5.985,1.995c-2.66,0-4.9-0.91-6.72-2.729
		c-1.12-1.12-1.843-2.556-2.17-4.305c-0.187-1.027-0.28-2.905-0.28-5.635c0-2.73,0.093-4.608,0.28-5.635
		c0.327-1.75,1.05-3.186,2.17-4.306c1.82-1.819,4.06-2.729,6.72-2.729c2.403,0,4.427,0.677,6.072,2.03s2.677,3.302,3.098,5.845
		h-4.935c-0.583-2.356-1.983-3.535-4.2-3.535c-1.47,0-2.602,0.549-3.395,1.645c-0.63,0.888-0.945,3.115-0.945,6.686
		c0,1.937,0.023,3.149,0.07,3.64c0.163,1.563,0.548,2.694,1.155,3.395c0.77,0.863,1.808,1.295,3.115,1.295
		c2.216,0,3.616-1.178,4.2-3.535H209.257z"/>
	<path d="M231.026,405.027c0,2.706-0.105,4.584-0.315,5.635c-0.304,1.727-1.027,3.161-2.17,4.305c-1.82,1.819-4.06,2.729-6.72,2.729
		c-2.684,0-4.935-0.91-6.755-2.729c-1.12-1.12-1.843-2.556-2.17-4.305c-0.187-1.027-0.28-2.905-0.28-5.635
		c0-2.73,0.093-4.608,0.28-5.635c0.327-1.75,1.05-3.186,2.17-4.306c1.82-1.819,4.071-2.729,6.755-2.729c2.66,0,4.9,0.91,6.72,2.729
		c1.143,1.144,1.866,2.579,2.17,4.306C230.921,400.442,231.026,402.32,231.026,405.027z M226.161,405.027
		c0-1.913-0.023-3.127-0.07-3.641c-0.14-1.54-0.525-2.659-1.155-3.359c-0.793-0.887-1.832-1.33-3.115-1.33
		c-1.307,0-2.357,0.443-3.15,1.33c-0.607,0.7-0.98,1.819-1.12,3.359c-0.047,0.42-0.07,1.634-0.07,3.641s0.023,3.22,0.07,3.64
		c0.14,1.54,0.513,2.659,1.12,3.359c0.793,0.887,1.843,1.33,3.15,1.33c1.446,0,2.578-0.56,3.395-1.68
		C225.846,410.813,226.161,408.597,226.161,405.027z"/>
	<path d="M255.07,417.486h-4.34l-9.87-15.294v15.294h-4.865v-24.919h4.34l9.87,15.26v-15.26h4.865V417.486z"/>
	<path d="M277.014,410.137c0,2.356-0.87,4.206-2.607,5.547c-1.738,1.343-3.949,2.013-6.632,2.013c-3.896,0-6.93-1.097-9.099-3.29
		l3.149-3.149c1.4,1.399,3.407,2.1,6.02,2.1c2.94,0,4.41-1.026,4.41-3.08c0-0.933-0.245-1.627-0.735-2.082
		c-0.49-0.455-1.237-0.753-2.24-0.893l-3.01-0.42c-4.41-0.606-6.615-2.928-6.615-6.965c0-2.263,0.782-4.089,2.345-5.478
		c1.563-1.388,3.675-2.082,6.334-2.082c3.36,0,6.043,0.969,8.05,2.905l-3.08,3.045c-1.19-1.144-2.893-1.715-5.109-1.715
		c-1.237,0-2.188,0.297-2.853,0.892c-0.665,0.596-0.998,1.348-0.998,2.258c0,0.724,0.263,1.33,0.788,1.82
		c0.525,0.489,1.277,0.805,2.257,0.944l2.94,0.42c2.123,0.304,3.71,0.945,4.76,1.925
		C276.372,406.065,277.014,407.827,277.014,410.137z"/>
	<path d="M297.978,417.486h-16.415v-24.919h16.415v4.34h-11.55v5.845h9.834v4.34h-9.834v6.055h11.55V417.486z"/>
	<path d="M321.602,417.486h-5.635l-4.865-9.939h-3.5v9.939h-4.865v-24.919h9.765c2.473,0,4.456,0.747,5.95,2.24
		c1.423,1.423,2.135,3.22,2.135,5.39c0,1.657-0.455,3.08-1.365,4.27c-0.817,1.05-1.878,1.809-3.185,2.275L321.602,417.486z
		 M315.721,400.18c0-0.975-0.327-1.764-0.98-2.367c-0.653-0.604-1.505-0.905-2.555-0.905h-4.585v6.545h4.585
		c1.05,0,1.901-0.302,2.555-0.905C315.394,401.943,315.721,401.154,315.721,400.18z"/>
	<path d="M342.95,392.567l-8.26,24.919h-3.64l-8.225-24.919h5.039l5.005,16.239l5.005-16.239H342.95z"/>
	<path d="M365.209,417.486h-5.075l-1.47-4.41h-8.854l-1.505,4.41h-5.075l9.064-24.919h3.815L365.209,417.486z M357.369,408.981
		l-3.045-9.064l-3.15,9.064H357.369z"/>
	<path d="M384.317,396.907h-6.51v20.579h-4.865v-20.579h-6.51v-4.34h17.885V396.907z"/>
	<path d="M405.841,405.027c0,2.706-0.104,4.584-0.314,5.635c-0.304,1.727-1.027,3.161-2.17,4.305c-1.82,1.819-4.06,2.729-6.72,2.729
		c-2.684,0-4.935-0.91-6.755-2.729c-1.12-1.12-1.844-2.556-2.17-4.305c-0.187-1.027-0.28-2.905-0.28-5.635
		c0-2.73,0.094-4.608,0.28-5.635c0.326-1.75,1.05-3.186,2.17-4.306c1.82-1.819,4.071-2.729,6.755-2.729
		c2.66,0,4.899,0.91,6.72,2.729c1.143,1.144,1.866,2.579,2.17,4.306C405.736,400.442,405.841,402.32,405.841,405.027z
		 M400.977,405.027c0-1.913-0.023-3.127-0.07-3.641c-0.14-1.54-0.524-2.659-1.154-3.359c-0.794-0.887-1.832-1.33-3.115-1.33
		c-1.307,0-2.357,0.443-3.15,1.33c-0.606,0.7-0.979,1.819-1.119,3.359c-0.047,0.42-0.07,1.634-0.07,3.641s0.023,3.22,0.07,3.64
		c0.14,1.54,0.513,2.659,1.119,3.359c0.793,0.887,1.844,1.33,3.15,1.33c1.446,0,2.578-0.56,3.395-1.68
		C400.661,410.813,400.977,408.597,400.977,405.027z"/>
	<path d="M429.675,417.486h-5.635l-4.864-9.939h-3.5v9.939h-4.864v-24.919h9.764c2.474,0,4.457,0.747,5.95,2.24
		c1.423,1.423,2.135,3.22,2.135,5.39c0,1.657-0.455,3.08-1.365,4.27c-0.816,1.05-1.878,1.809-3.185,2.275L429.675,417.486z
		 M423.796,400.18c0-0.975-0.327-1.764-0.98-2.367s-1.505-0.905-2.555-0.905h-4.585v6.545h4.585c1.05,0,1.901-0.302,2.555-0.905
		S423.796,401.154,423.796,400.18z"/>
	<path d="M450.709,392.567l-7.489,14.699v10.22h-4.83v-10.22l-7.489-14.699h5.284l4.655,10.045l4.584-10.045H450.709z"/>
</g>
</svg>
