<?xml version="1.0" encoding="utf-8"?>
<!-- Generator: Adobe Illustrator 15.0.0, SVG Export Plug-In . SVG Version: 6.00 Build 0)  -->
<!DOCTYPE svg PUBLIC "-//W3C//DTD SVG 1.1//EN" "http://www.w3.org/Graphics/SVG/1.1/DTD/svg11.dtd">
<svg version="1.1" id="Layer_1" xmlns="http://www.w3.org/2000/svg" xmlns:xlink="http://www.w3.org/1999/xlink" x="0px" y="0px"
	 width="16px" height="16px" viewBox="0 0 16 16" enable-background="new 0 0 16 16" xml:space="preserve">
<path fill="#3B2F3F" d="M8.011-0.026H0.009v8.001v8.001h8.001h8.001V7.976v-8.001H8.011z M10.828,10.769H5.242V5.183h5.586V10.769z"
	/>
<g>
	<path fill="#3B2F3F" d="M6.607,8.099c0-0.352,0.083-0.633,0.247-0.845c0.147-0.188,0.325-0.283,0.534-0.283
		c0.21,0,0.388,0.095,0.534,0.283C8.086,7.466,8.17,7.751,8.17,8.115c0,0.358-0.084,0.646-0.249,0.855
		C7.775,9.16,7.598,9.256,7.389,9.256c-0.208,0-0.386-0.096-0.536-0.285C6.69,8.761,6.607,8.47,6.607,8.099z M6.938,8.1
		c0,0.247,0.042,0.45,0.125,0.613c0.086,0.159,0.194,0.236,0.326,0.236c0.129,0,0.239-0.077,0.324-0.236
		c0.086-0.158,0.127-0.36,0.127-0.603c0-0.239-0.042-0.439-0.127-0.602C7.628,7.351,7.519,7.271,7.389,7.271S7.15,7.351,7.065,7.509
		C6.979,7.666,6.938,7.865,6.938,8.1z"/>
	<path fill="#3B2F3F" d="M8.861,7.319H8.479l0.185-0.31h0.532v2.211H8.861V7.319z"/>
</g>
<polyline fill="none" points="16.023,11.791 4.205,11.789 4.205,5.296 "/>
<path fill="#3EBDA9" d="M16.021,10.843v-0.134h-3.173V2.546l-4.779,0v-2.578H8.001v2.578l-8.008,0v1.047l11.808,0v7.115l-0.93-0.001
	V5.122H0.01v0.134h3.144v8.208h4.848v2.513h0.067v-2.513l7.95-0.001v-1.047H4.201v-7.16h0.95v5.585L16.021,10.843z M10.735,10.708
	l-5.45-0.001V5.256h5.45V10.708z"/>
</svg>
