<?xml version="1.0" encoding="utf-8"?>
<!-- Generator: Adobe Illustrator 15.0.0, SVG Export Plug-In . SVG Version: 6.00 Build 0)  -->
<!DOCTYPE svg PUBLIC "-//W3C//DTD SVG 1.1//EN" "http://www.w3.org/Graphics/SVG/1.1/DTD/svg11.dtd">
<svg version="1.1" id="Layer_1" xmlns="http://www.w3.org/2000/svg" xmlns:xlink="http://www.w3.org/1999/xlink" x="0px" y="0px"
	 width="640px" height="480px" viewBox="0 0 640 480" enable-background="new 0 0 640 480" xml:space="preserve">
<rect x="-200.106" y="89.081" fill="none" width="96.104" height="103.627"/>
<text transform="matrix(1 0 0 1 -200.1055 105.5801)"><tspan x="0" y="0" font-family="'Futura-Medium'" font-size="20" letter-spacing="1">C= 71</tspan><tspan x="0" y="24" font-family="'Futura-Medium'" font-size="20" letter-spacing="1">M= 75</tspan><tspan x="0" y="48" font-family="'Futura-Medium'" font-size="20" letter-spacing="1">Y= 50</tspan><tspan x="0" y="72" font-family="'Futura-Medium'" font-size="20" letter-spacing="1">K= 50</tspan></text>
<rect x="-200.106" y="233.743" fill="none" width="96.104" height="103.627"/>
<text transform="matrix(1 0 0 1 -200.1055 250.2422)"><tspan x="0" y="0" font-family="'Futura-Medium'" font-size="20" letter-spacing="1">C= 69</tspan><tspan x="0" y="24" font-family="'Futura-Medium'" font-size="20" letter-spacing="1">M= 0</tspan><tspan x="0" y="48" font-family="'Futura-Medium'" font-size="20" letter-spacing="1">Y= 42</tspan><tspan x="0" y="72" font-family="'Futura-Medium'" font-size="20" letter-spacing="1">K= 0</tspan></text>
<rect x="-340.001" y="86.708" fill="#3B2F3F" width="114" height="106"/>
<rect x="-340.001" y="232.556" fill="#3BBDA9" width="114" height="106"/>
<g>
	<rect x="269.367" y="152.516" fill="#3B2F3F" width="92.618" height="92.617"/>
	<polygon fill="#3B2F3F" points="315.674,66.037 182.994,66.037 182.994,198.717 182.994,331.396 315.674,331.396 448.356,331.396 
		448.356,198.717 448.356,66.037 	"/>
	<rect x="269.767" y="152.408" fill="#FFFFFF" width="92.617" height="92.617"/>
	<g>
		<path fill="#3B2F3F" d="M289.425,184.74c0-2.849,0.664-5.123,1.992-6.822c1.189-1.537,2.63-2.306,4.321-2.306
			c1.69,0,3.131,0.769,4.32,2.306c1.328,1.699,1.992,4.012,1.992,6.938c0,2.919-0.664,5.228-1.992,6.926
			c-1.189,1.537-2.625,2.305-4.309,2.305s-3.127-0.768-4.333-2.305C290.089,190.083,289.425,187.736,289.425,184.74z
			 M292.089,184.751c0,1.984,0.343,3.633,1.029,4.946c0.686,1.29,1.561,1.935,2.625,1.935c1.056,0,1.931-0.645,2.625-1.935
			c0.694-1.282,1.041-2.899,1.041-4.853s-0.347-3.575-1.041-4.865c-0.694-1.282-1.569-1.923-2.625-1.923
			c-1.049,0-1.919,0.641-2.614,1.923C292.436,181.253,292.089,182.844,292.089,184.751z"/>
		<path fill="#3B2F3F" d="M304.066,184.74c0-2.849,0.664-5.123,1.992-6.822c1.189-1.537,2.63-2.306,4.321-2.306
			s3.131,0.769,4.32,2.306c1.328,1.699,1.992,4.012,1.992,6.938c0,2.919-0.664,5.228-1.992,6.926
			c-1.189,1.537-2.625,2.305-4.309,2.305c-1.684,0-3.127-0.768-4.333-2.305C304.73,190.083,304.066,187.736,304.066,184.74z
			 M306.73,184.751c0,1.984,0.343,3.633,1.029,4.946c0.686,1.29,1.561,1.935,2.625,1.935c1.057,0,1.932-0.645,2.625-1.935
			c0.694-1.282,1.041-2.899,1.041-4.853s-0.347-3.575-1.041-4.865c-0.694-1.282-1.569-1.923-2.625-1.923
			c-1.049,0-1.919,0.641-2.613,1.923C307.077,181.253,306.73,182.844,306.73,184.751z"/>
		<path fill="#3B2F3F" d="M322.297,178.451h-3.093l1.484-2.537h4.309v17.884h-2.7V178.451z"/>
		<path fill="#3B2F3F" d="M330.094,184.74c0-2.849,0.664-5.123,1.992-6.822c1.188-1.537,2.63-2.306,4.32-2.306
			c1.691,0,3.131,0.769,4.32,2.306c1.328,1.699,1.992,4.012,1.992,6.938c0,2.919-0.664,5.228-1.992,6.926
			c-1.189,1.537-2.626,2.305-4.309,2.305c-1.685,0-3.127-0.768-4.332-2.305C330.758,190.083,330.094,187.736,330.094,184.74z
			 M332.758,184.751c0,1.984,0.343,3.633,1.028,4.946c0.688,1.29,1.562,1.935,2.626,1.935c1.057,0,1.931-0.645,2.625-1.935
			c0.693-1.282,1.041-2.899,1.041-4.853s-0.348-3.575-1.041-4.865c-0.694-1.282-1.568-1.923-2.625-1.923
			c-1.049,0-1.92,0.641-2.613,1.923C333.105,181.253,332.758,182.844,332.758,184.751z"/>
		<path fill="#3B2F3F" d="M296.578,206.917h-3.093l1.482-2.537h4.309v17.884h-2.699V206.917z"/>
		<path fill="#3B2F3F" d="M304.373,213.206c0-2.85,0.664-5.123,1.992-6.822c1.189-1.537,2.63-2.306,4.321-2.306
			c1.69,0,3.131,0.769,4.32,2.306c1.328,1.699,1.992,4.011,1.992,6.938c0,2.919-0.664,5.228-1.992,6.926
			c-1.189,1.537-2.625,2.305-4.309,2.305s-3.127-0.768-4.332-2.305C305.037,218.55,304.373,216.202,304.373,213.206z
			 M307.038,213.218c0,1.984,0.343,3.633,1.029,4.946c0.686,1.29,1.561,1.935,2.625,1.935c1.057,0,1.932-0.645,2.625-1.935
			c0.694-1.282,1.041-2.899,1.041-4.853s-0.347-3.575-1.041-4.865c-0.694-1.282-1.569-1.923-2.625-1.923
			c-1.049,0-1.919,0.641-2.613,1.923C307.384,209.72,307.038,211.311,307.038,213.218z"/>
		<path fill="#3B2F3F" d="M322.605,206.917h-3.093l1.482-2.537h4.308v17.884h-2.697V206.917z"/>
		<path fill="#3B2F3F" d="M333.783,206.917h-3.093l1.483-2.537h4.309v17.884h-2.699V206.917z"/>
	</g>
	<line fill="none" stroke="#3BBDA9" stroke-miterlimit="10" x1="316.076" y1="65.953" x2="316.076" y2="118.835"/>
	<line fill="none" stroke="#3BBDA9" stroke-miterlimit="10" x1="316.076" y1="280.022" x2="316.076" y2="332.905"/>
	<polyline fill="none" points="448.534,261.974 252.559,261.941 252.559,154.29 	"/>
	<polyline fill="none" stroke="#3BBDA9" stroke-width="2" stroke-miterlimit="10" points="269.367,152.972 269.367,245.133 
		448.486,245.162 	"/>
	<polyline fill="none" stroke="#000000" stroke-width="0.5" stroke-miterlimit="10" points="182.999,135.703 378.793,135.703 
		378.793,243.355 	"/>
	<polyline fill="none" stroke="#3BBDA9" stroke-width="2" stroke-miterlimit="10" points="361.985,244.673 361.985,152.516 
		182.999,152.516 	"/>
	<polyline fill="#3BBDA9" stroke="#3BBDA9" stroke-width="0.5" stroke-miterlimit="10" points="378.793,246.039 378.793,135.644 
		182.999,135.656 182.999,118.848 395.602,118.835 395.602,246.039 	"/>
	<polyline fill="#3BBDA9" stroke="#3BBDA9" stroke-width="0.5" stroke-miterlimit="10" points="252.219,152.817 252.219,263.214 
		448.181,263.2 448.181,280.013 235.411,280.022 235.411,152.817 	"/>
	<g>
		<path fill="#3B2F3F" d="M307.831,360.793h-5.914v18.447h-1.505v-18.447h-5.887v-1.329h13.306V360.793z"/>
		<path fill="#3B2F3F" d="M325.03,379.24h-1.506v-9.305h-10.295v9.305h-1.506v-19.776h1.506v9.143h10.295v-9.143h1.506V379.24z"/>
		<path fill="#3B2F3F" d="M343.151,379.24h-12.004v-19.776h12.004v1.329h-10.498v7.813h8.938v1.329h-8.938v7.976h10.498V379.24z"/>
		<path fill="#3B2F3F" d="M210.374,407.253c-0.414,2.504-1.458,4.433-3.135,5.787c-1.584,1.309-3.548,1.964-5.89,1.964
			c-2.618,0-4.822-0.896-6.614-2.688c-1.102-1.102-1.814-2.515-2.135-4.236c-0.184-1.011-0.276-2.859-0.276-5.546
			s0.092-4.535,0.276-5.546c0.321-1.723,1.033-3.135,2.135-4.236c1.792-1.792,3.996-2.688,6.614-2.688
			c2.365,0,4.357,0.667,5.977,1.998c1.619,1.332,2.635,3.25,3.048,5.753h-4.857c-0.574-2.319-1.952-3.479-4.133-3.479
			c-1.447,0-2.561,0.54-3.341,1.619c-0.62,0.873-0.93,3.065-0.93,6.579c0,1.906,0.022,3.101,0.069,3.582
			c0.16,1.539,0.539,2.652,1.137,3.342c0.758,0.85,1.779,1.274,3.066,1.274c2.181,0,3.559-1.159,4.133-3.479H210.374z"/>
		<path fill="#3B2F3F" d="M231.799,402.534c0,2.664-0.104,4.513-0.31,5.546c-0.299,1.699-1.011,3.112-2.136,4.236
			c-1.791,1.792-3.996,2.688-6.613,2.688c-2.641,0-4.857-0.896-6.648-2.688c-1.102-1.102-1.814-2.515-2.135-4.236
			c-0.184-1.011-0.276-2.859-0.276-5.546s0.092-4.535,0.276-5.546c0.321-1.723,1.033-3.135,2.135-4.236
			c1.792-1.792,4.007-2.688,6.648-2.688c2.618,0,4.822,0.896,6.613,2.688c1.125,1.125,1.837,2.537,2.136,4.236
			C231.696,398.021,231.799,399.87,231.799,402.534z M227.011,402.534c0-1.883-0.023-3.077-0.069-3.582
			c-0.138-1.516-0.517-2.618-1.137-3.308c-0.781-0.872-1.803-1.309-3.065-1.309c-1.287,0-2.32,0.437-3.101,1.309
			c-0.597,0.689-0.964,1.792-1.102,3.308c-0.046,0.413-0.069,1.607-0.069,3.582c0,1.976,0.022,3.169,0.069,3.582
			c0.138,1.516,0.505,2.618,1.102,3.307c0.781,0.873,1.814,1.31,3.101,1.31c1.423,0,2.537-0.552,3.341-1.653
			C226.701,408.229,227.011,406.048,227.011,402.534z"/>
		<path fill="#3B2F3F" d="M255.463,414.797h-4.271l-9.714-15.053v15.053h-4.788v-24.525h4.271l9.714,15.019v-15.019h4.788V414.797z"
			/>
		<path fill="#3B2F3F" d="M277.061,407.563c0,2.319-0.856,4.14-2.566,5.459c-1.711,1.321-3.887,1.981-6.527,1.981
			c-3.835,0-6.82-1.079-8.956-3.238l3.1-3.101c1.378,1.378,3.353,2.067,5.925,2.067c2.893,0,4.34-1.011,4.34-3.031
			c0-0.918-0.241-1.602-0.723-2.05c-0.482-0.447-1.217-0.74-2.205-0.878l-2.962-0.414c-4.34-0.597-6.51-2.881-6.51-6.854
			c0-2.227,0.769-4.024,2.308-5.391c1.538-1.366,3.617-2.05,6.234-2.05c3.307,0,5.947,0.953,7.923,2.859l-3.031,2.997
			c-1.171-1.125-2.848-1.688-5.029-1.688c-1.217,0-2.153,0.293-2.807,0.879c-0.655,0.585-0.982,1.326-0.982,2.222
			c0,0.712,0.258,1.309,0.775,1.791c0.517,0.482,1.257,0.792,2.222,0.93l2.893,0.414c2.089,0.299,3.651,0.93,4.685,1.895
			C276.429,403.557,277.061,405.29,277.061,407.563z"/>
		<path fill="#3B2F3F" d="M297.693,414.797h-16.155v-24.525h16.155v4.271h-11.367v5.752h9.679v4.271h-9.679v5.959h11.367V414.797z"
			/>
		<path fill="#3B2F3F" d="M320.944,414.797h-5.546l-4.788-9.782h-3.445v9.782h-4.788v-24.525h9.61c2.434,0,4.386,0.735,5.856,2.204
			c1.4,1.401,2.101,3.169,2.101,5.305c0,1.631-0.448,3.031-1.343,4.203c-0.804,1.033-1.849,1.779-3.135,2.238L320.944,414.797z
			 M315.157,397.764c0-0.959-0.322-1.736-0.964-2.33c-0.643-0.594-1.481-0.891-2.515-0.891h-4.512v6.441h4.512
			c1.034,0,1.872-0.297,2.515-0.891C314.835,399.5,315.157,398.723,315.157,397.764z"/>
		<path fill="#3B2F3F" d="M341.956,390.271l-8.13,24.525h-3.582l-8.095-24.525h4.96l4.926,15.982l4.926-15.982H341.956z"/>
		<path fill="#3B2F3F" d="M363.863,414.797h-4.995l-1.446-4.34h-8.715l-1.481,4.34h-4.995l8.922-24.525h3.755L363.863,414.797z
			 M356.146,406.427l-2.996-8.922l-3.101,8.922H356.146z"/>
		<path fill="#3B2F3F" d="M382.669,394.543h-6.406v20.254h-4.788v-20.254h-6.407v-4.271h17.602V394.543z"/>
		<path fill="#3B2F3F" d="M403.854,402.534c0,2.664-0.103,4.513-0.31,5.546c-0.299,1.699-1.011,3.112-2.136,4.236
			c-1.791,1.792-3.996,2.688-6.613,2.688c-2.642,0-4.857-0.896-6.648-2.688c-1.103-1.102-1.814-2.515-2.136-4.236
			c-0.184-1.011-0.275-2.859-0.275-5.546s0.092-4.535,0.275-5.546c0.321-1.723,1.033-3.135,2.136-4.236
			c1.791-1.792,4.007-2.688,6.648-2.688c2.617,0,4.822,0.896,6.613,2.688c1.125,1.125,1.837,2.537,2.136,4.236
			C403.751,398.021,403.854,399.87,403.854,402.534z M399.066,402.534c0-1.883-0.023-3.077-0.069-3.582
			c-0.138-1.516-0.517-2.618-1.137-3.308c-0.781-0.872-1.803-1.309-3.065-1.309c-1.286,0-2.32,0.437-3.101,1.309
			c-0.598,0.689-0.964,1.792-1.102,3.308c-0.047,0.413-0.069,1.607-0.069,3.582c0,1.976,0.022,3.169,0.069,3.582
			c0.138,1.516,0.504,2.618,1.102,3.307c0.78,0.873,1.814,1.31,3.101,1.31c1.423,0,2.537-0.552,3.341-1.653
			C398.756,408.229,399.066,406.048,399.066,402.534z"/>
		<path fill="#3B2F3F" d="M427.312,414.797h-5.546l-4.788-9.782h-3.445v9.782h-4.787v-24.525h9.61c2.434,0,4.386,0.735,5.855,2.204
			c1.4,1.401,2.102,3.169,2.102,5.305c0,1.631-0.448,3.031-1.344,4.203c-0.804,1.033-1.849,1.779-3.135,2.238L427.312,414.797z
			 M421.524,397.764c0-0.959-0.322-1.736-0.965-2.33c-0.644-0.594-1.481-0.891-2.515-0.891h-4.513v6.441h4.513
			c1.033,0,1.871-0.297,2.515-0.891C421.202,399.5,421.524,398.723,421.524,397.764z"/>
		<path fill="#3B2F3F" d="M448.013,390.271l-7.371,14.467v10.059h-4.754v-10.059l-7.371-14.467h5.201l4.581,9.886l4.513-9.886
			H448.013z"/>
	</g>
</g>
</svg>
