<?xml version="1.0" encoding="utf-8"?>
<!-- Generator: Adobe Illustrator 15.0.0, SVG Export Plug-In . SVG Version: 6.00 Build 0)  -->
<!DOCTYPE svg PUBLIC "-//W3C//DTD SVG 1.1//EN" "http://www.w3.org/Graphics/SVG/1.1/DTD/svg11.dtd">
<svg version="1.1" id="Layer_1" xmlns="http://www.w3.org/2000/svg" xmlns:xlink="http://www.w3.org/1999/xlink" x="0px" y="0px"
	 width="32px" height="32px" viewBox="0 0 32 32" enable-background="new 0 0 32 32" xml:space="preserve">
<path fill="#3B2F3F" d="M15.97-0.136H-0.06v16.03v16.03h16.03H32v-16.03v-16.03H15.97z M21.613,21.488h-11.19V10.299h11.19V21.488z"
	/>
<g>
	<path fill="#3B2F3F" d="M12.869,15.971c0-0.788,0.185-1.418,0.552-1.888c0.33-0.425,0.728-0.64,1.197-0.64
		c0.468,0,0.868,0.215,1.197,0.64c0.369,0.47,0.552,1.113,0.552,1.922c0,0.808-0.184,1.449-0.552,1.919
		c-0.329,0.424-0.728,0.637-1.193,0.637c-0.467,0-0.867-0.213-1.201-0.637C13.054,17.453,12.869,16.804,12.869,15.971z
		 M13.607,15.975c0,0.551,0.095,1.008,0.285,1.371c0.19,0.357,0.433,0.537,0.727,0.537c0.293,0,0.536-0.18,0.727-0.537
		c0.193-0.354,0.29-0.802,0.29-1.346c0-0.539-0.097-0.99-0.29-1.348c-0.19-0.354-0.433-0.531-0.727-0.531
		c-0.29,0-0.531,0.177-0.724,0.531C13.704,15.007,13.607,15.446,13.607,15.975z"/>
	<path fill="#3B2F3F" d="M17.921,14.229h-0.858l0.412-0.704h1.192v4.955h-0.746V14.229z"/>
</g>
<polyline fill="none" points="32.021,23.537 8.345,23.532 8.345,10.526 "/>
<polyline fill="none" stroke="#000000" stroke-width="0.5" stroke-miterlimit="10" points="-0.059,8.281 23.596,8.281 
	23.596,21.287 "/>
<path fill="#3EBDA9" d="M32.016,21.64v-0.269L25.66,21.37V6.209l-9.575,0v-6.356h-0.134V6.21L-0.093,6.211v2.098l23.654-0.001
	v13.062h-1.862V10.177H-0.059v0.269h6.298V25.75l9.712-0.001v6.175h0.134v-6.175h15.926v-2.098L8.337,23.653V10.446h1.904v11.189
	L32.016,21.64z M21.431,21.369l-10.921-0.002V10.446h10.921V21.369z"/>
</svg>
